<mxfile host="app.diagrams.net" agent="Mozilla/5.0 (Windows NT 10.0; Win64; x64) AppleWebKit/537.36 (KHTML, like Gecko) Chrome/134.0.0.0 Safari/537.36" version="26.1.2">
  <diagram name="第 1 页" id="JKQc3_YzaxE0ya_Yzxvw">
    <mxGraphModel dx="1434" dy="786" grid="1" gridSize="10" guides="1" tooltips="1" connect="1" arrows="1" fold="1" page="1" pageScale="1" pageWidth="827" pageHeight="1169" math="0" shadow="0">
      <root>
        <mxCell id="0" />
        <mxCell id="1" parent="0" />
        <mxCell id="9EPbQ2EsTdeeWSGCglKs-14" value="自动化组件" style="shape=table;childLayout=tableLayout;startSize=40;collapsible=0;recursiveResize=0;expand=0;fontSize=16;" vertex="1" parent="1">
          <mxGeometry x="50" y="120" width="1280" height="600" as="geometry" />
        </mxCell>
        <mxCell id="9EPbQ2EsTdeeWSGCglKs-15" value="普通用户" style="shape=tableRow;horizontal=0;swimlaneHead=0;swimlaneBody=0;top=0;left=0;strokeColor=inherit;bottom=0;right=0;dropTarget=0;fontStyle=0;fillColor=none;points=[[0,0.5],[1,0.5]];portConstraint=eastwest;startSize=40;collapsible=0;recursiveResize=0;expand=0;fontSize=16;" vertex="1" parent="9EPbQ2EsTdeeWSGCglKs-14">
          <mxGeometry y="40" width="1280" height="300" as="geometry" />
        </mxCell>
        <mxCell id="9EPbQ2EsTdeeWSGCglKs-16" value="门户首页" style="swimlane;swimlaneHead=0;swimlaneBody=0;fontStyle=0;strokeColor=inherit;connectable=0;fillColor=none;startSize=90;collapsible=0;recursiveResize=0;expand=0;fontSize=16;" vertex="1" parent="9EPbQ2EsTdeeWSGCglKs-15">
          <mxGeometry x="40" width="311" height="300" as="geometry">
            <mxRectangle width="311" height="300" as="alternateBounds" />
          </mxGeometry>
        </mxCell>
        <mxCell id="9EPbQ2EsTdeeWSGCglKs-45" value="查询作业列表" style="rounded=0;whiteSpace=wrap;html=1;" vertex="1" parent="9EPbQ2EsTdeeWSGCglKs-16">
          <mxGeometry x="60" y="200" width="120" height="60" as="geometry" />
        </mxCell>
        <mxCell id="9EPbQ2EsTdeeWSGCglKs-17" value="视图管理" style="swimlane;swimlaneHead=0;swimlaneBody=0;fontStyle=0;strokeColor=inherit;connectable=0;fillColor=none;startSize=90;collapsible=0;recursiveResize=0;expand=0;fontSize=16;" vertex="1" parent="9EPbQ2EsTdeeWSGCglKs-15">
          <mxGeometry x="351" width="309" height="300" as="geometry">
            <mxRectangle width="309" height="300" as="alternateBounds" />
          </mxGeometry>
        </mxCell>
        <mxCell id="9EPbQ2EsTdeeWSGCglKs-18" value="视图编辑器" style="swimlane;swimlaneHead=0;swimlaneBody=0;fontStyle=0;strokeColor=inherit;connectable=0;fillColor=none;startSize=90;collapsible=0;recursiveResize=0;expand=0;fontSize=16;" vertex="1" parent="9EPbQ2EsTdeeWSGCglKs-15">
          <mxGeometry x="660" width="311" height="300" as="geometry">
            <mxRectangle width="311" height="300" as="alternateBounds" />
          </mxGeometry>
        </mxCell>
        <mxCell id="9EPbQ2EsTdeeWSGCglKs-27" value="运维自动化" style="swimlane;swimlaneHead=0;swimlaneBody=0;fontStyle=0;strokeColor=inherit;connectable=0;fillColor=none;startSize=90;collapsible=0;recursiveResize=0;expand=0;fontSize=16;" vertex="1" parent="9EPbQ2EsTdeeWSGCglKs-15">
          <mxGeometry x="971" width="309" height="300" as="geometry">
            <mxRectangle width="309" height="300" as="alternateBounds" />
          </mxGeometry>
        </mxCell>
        <mxCell id="9EPbQ2EsTdeeWSGCglKs-46" value="根据当前用户权限查询数据" style="rounded=0;whiteSpace=wrap;html=1;" vertex="1" parent="9EPbQ2EsTdeeWSGCglKs-27">
          <mxGeometry x="59" y="200" width="120" height="60" as="geometry" />
        </mxCell>
        <mxCell id="9EPbQ2EsTdeeWSGCglKs-47" style="edgeStyle=orthogonalEdgeStyle;rounded=0;orthogonalLoop=1;jettySize=auto;html=1;entryX=1;entryY=0.5;entryDx=0;entryDy=0;" edge="1" parent="9EPbQ2EsTdeeWSGCglKs-15" source="9EPbQ2EsTdeeWSGCglKs-46" target="9EPbQ2EsTdeeWSGCglKs-45">
          <mxGeometry relative="1" as="geometry" />
        </mxCell>
        <mxCell id="9EPbQ2EsTdeeWSGCglKs-19" value="管理员" style="shape=tableRow;horizontal=0;swimlaneHead=0;swimlaneBody=0;top=0;left=0;strokeColor=inherit;bottom=0;right=0;dropTarget=0;fontStyle=0;fillColor=none;points=[[0,0.5],[1,0.5]];portConstraint=eastwest;startSize=40;collapsible=0;recursiveResize=0;expand=0;fontSize=16;" vertex="1" parent="9EPbQ2EsTdeeWSGCglKs-14">
          <mxGeometry y="340" width="1280" height="260" as="geometry" />
        </mxCell>
        <mxCell id="9EPbQ2EsTdeeWSGCglKs-20" value="" style="swimlane;swimlaneHead=0;swimlaneBody=0;fontStyle=0;connectable=0;strokeColor=inherit;fillColor=none;startSize=0;collapsible=0;recursiveResize=0;expand=0;fontSize=16;" vertex="1" parent="9EPbQ2EsTdeeWSGCglKs-19">
          <mxGeometry x="40" width="311" height="260" as="geometry">
            <mxRectangle width="311" height="260" as="alternateBounds" />
          </mxGeometry>
        </mxCell>
        <mxCell id="9EPbQ2EsTdeeWSGCglKs-21" value="" style="swimlane;swimlaneHead=0;swimlaneBody=0;fontStyle=0;connectable=0;strokeColor=inherit;fillColor=none;startSize=0;collapsible=0;recursiveResize=0;expand=0;fontSize=16;" vertex="1" parent="9EPbQ2EsTdeeWSGCglKs-19">
          <mxGeometry x="351" width="309" height="260" as="geometry">
            <mxRectangle width="309" height="260" as="alternateBounds" />
          </mxGeometry>
        </mxCell>
        <mxCell id="9EPbQ2EsTdeeWSGCglKs-22" value="" style="swimlane;swimlaneHead=0;swimlaneBody=0;fontStyle=0;connectable=0;strokeColor=inherit;fillColor=none;startSize=0;collapsible=0;recursiveResize=0;expand=0;fontSize=16;" vertex="1" parent="9EPbQ2EsTdeeWSGCglKs-19">
          <mxGeometry x="660" width="311" height="260" as="geometry">
            <mxRectangle width="311" height="260" as="alternateBounds" />
          </mxGeometry>
        </mxCell>
        <mxCell id="9EPbQ2EsTdeeWSGCglKs-44" value="" style="group" vertex="1" connectable="0" parent="9EPbQ2EsTdeeWSGCglKs-22">
          <mxGeometry x="-290" y="20" width="560" height="200" as="geometry" />
        </mxCell>
        <mxCell id="9EPbQ2EsTdeeWSGCglKs-38" style="edgeStyle=orthogonalEdgeStyle;rounded=0;orthogonalLoop=1;jettySize=auto;html=1;entryX=0.5;entryY=0;entryDx=0;entryDy=0;" edge="1" parent="9EPbQ2EsTdeeWSGCglKs-44" source="9EPbQ2EsTdeeWSGCglKs-30" target="9EPbQ2EsTdeeWSGCglKs-31">
          <mxGeometry relative="1" as="geometry" />
        </mxCell>
        <mxCell id="9EPbQ2EsTdeeWSGCglKs-30" value="开始" style="rounded=1;whiteSpace=wrap;html=1;" vertex="1" parent="9EPbQ2EsTdeeWSGCglKs-44">
          <mxGeometry y="58.33333333333332" width="113.89830508474576" height="50" as="geometry" />
        </mxCell>
        <mxCell id="9EPbQ2EsTdeeWSGCglKs-39" style="edgeStyle=orthogonalEdgeStyle;rounded=0;orthogonalLoop=1;jettySize=auto;html=1;entryX=0;entryY=0.5;entryDx=0;entryDy=0;" edge="1" parent="9EPbQ2EsTdeeWSGCglKs-44" source="9EPbQ2EsTdeeWSGCglKs-31" target="9EPbQ2EsTdeeWSGCglKs-32">
          <mxGeometry relative="1" as="geometry" />
        </mxCell>
        <mxCell id="9EPbQ2EsTdeeWSGCglKs-31" value="创建视图" style="rounded=0;whiteSpace=wrap;html=1;" vertex="1" parent="9EPbQ2EsTdeeWSGCglKs-44">
          <mxGeometry y="150" width="113.89830508474576" height="50" as="geometry" />
        </mxCell>
        <mxCell id="9EPbQ2EsTdeeWSGCglKs-40" style="edgeStyle=orthogonalEdgeStyle;rounded=0;orthogonalLoop=1;jettySize=auto;html=1;entryX=0;entryY=0.5;entryDx=0;entryDy=0;" edge="1" parent="9EPbQ2EsTdeeWSGCglKs-44" source="9EPbQ2EsTdeeWSGCglKs-32" target="9EPbQ2EsTdeeWSGCglKs-33">
          <mxGeometry relative="1" as="geometry" />
        </mxCell>
        <mxCell id="9EPbQ2EsTdeeWSGCglKs-32" value="视图授权" style="rounded=0;whiteSpace=wrap;html=1;" vertex="1" parent="9EPbQ2EsTdeeWSGCglKs-44">
          <mxGeometry x="161.3559322033898" y="150" width="113.89830508474576" height="50" as="geometry" />
        </mxCell>
        <mxCell id="9EPbQ2EsTdeeWSGCglKs-41" style="edgeStyle=orthogonalEdgeStyle;rounded=0;orthogonalLoop=1;jettySize=auto;html=1;entryX=0;entryY=0.5;entryDx=0;entryDy=0;" edge="1" parent="9EPbQ2EsTdeeWSGCglKs-44" source="9EPbQ2EsTdeeWSGCglKs-33" target="9EPbQ2EsTdeeWSGCglKs-34">
          <mxGeometry relative="1" as="geometry" />
        </mxCell>
        <mxCell id="9EPbQ2EsTdeeWSGCglKs-33" value="拖拽自动化组件" style="rounded=0;whiteSpace=wrap;html=1;" vertex="1" parent="9EPbQ2EsTdeeWSGCglKs-44">
          <mxGeometry x="303.72881355932196" y="150" width="113.89830508474576" height="50" as="geometry" />
        </mxCell>
        <mxCell id="9EPbQ2EsTdeeWSGCglKs-42" style="edgeStyle=orthogonalEdgeStyle;rounded=0;orthogonalLoop=1;jettySize=auto;html=1;entryX=0.5;entryY=1;entryDx=0;entryDy=0;" edge="1" parent="9EPbQ2EsTdeeWSGCglKs-44" source="9EPbQ2EsTdeeWSGCglKs-34" target="9EPbQ2EsTdeeWSGCglKs-35">
          <mxGeometry relative="1" as="geometry" />
        </mxCell>
        <mxCell id="9EPbQ2EsTdeeWSGCglKs-34" value="组件配置" style="rounded=0;whiteSpace=wrap;html=1;" vertex="1" parent="9EPbQ2EsTdeeWSGCglKs-44">
          <mxGeometry x="446.1016949152542" y="150" width="113.89830508474576" height="50" as="geometry" />
        </mxCell>
        <mxCell id="9EPbQ2EsTdeeWSGCglKs-43" style="edgeStyle=orthogonalEdgeStyle;rounded=0;orthogonalLoop=1;jettySize=auto;html=1;entryX=0.5;entryY=1;entryDx=0;entryDy=0;" edge="1" parent="9EPbQ2EsTdeeWSGCglKs-44" source="9EPbQ2EsTdeeWSGCglKs-35" target="9EPbQ2EsTdeeWSGCglKs-37">
          <mxGeometry relative="1" as="geometry" />
        </mxCell>
        <mxCell id="9EPbQ2EsTdeeWSGCglKs-35" value="点击保存&lt;span style=&quot;color: rgba(0, 0, 0, 0); font-family: monospace; font-size: 0px; text-align: start; text-wrap-mode: nowrap;&quot;&gt;%3CmxGraphModel%3E%3Croot%3E%3CmxCell%20id%3D%220%22%2F%3E%3CmxCell%20id%3D%221%22%20parent%3D%220%22%2F%3E%3CmxCell%20id%3D%222%22%20value%3D%22%E5%88%9B%E5%BB%BA%E8%A7%86%E5%9B%BE%22%20style%3D%22rounded%3D0%3BwhiteSpace%3Dwrap%3Bhtml%3D1%3B%22%20vertex%3D%221%22%20parent%3D%221%22%3E%3CmxGeometry%20x%3D%22330%22%20y%3D%22820%22%20width%3D%22120%22%20height%3D%2260%22%20as%3D%22geometry%22%2F%3E%3C%2FmxCell%3E%3C%2Froot%3E%3C%2FmxGraphModel%3E&lt;/span&gt;" style="rounded=0;whiteSpace=wrap;html=1;" vertex="1" parent="9EPbQ2EsTdeeWSGCglKs-44">
          <mxGeometry x="446.1016949152542" y="75" width="113.89830508474576" height="50" as="geometry" />
        </mxCell>
        <mxCell id="9EPbQ2EsTdeeWSGCglKs-37" value="自定义视图完成" style="rounded=1;whiteSpace=wrap;html=1;" vertex="1" parent="9EPbQ2EsTdeeWSGCglKs-44">
          <mxGeometry x="446.1016949152542" width="113.89830508474576" height="50" as="geometry" />
        </mxCell>
        <mxCell id="9EPbQ2EsTdeeWSGCglKs-28" style="swimlane;swimlaneHead=0;swimlaneBody=0;fontStyle=0;connectable=0;strokeColor=inherit;fillColor=none;startSize=0;collapsible=0;recursiveResize=0;expand=0;fontSize=16;" vertex="1" parent="9EPbQ2EsTdeeWSGCglKs-19">
          <mxGeometry x="971" width="309" height="260" as="geometry">
            <mxRectangle width="309" height="260" as="alternateBounds" />
          </mxGeometry>
        </mxCell>
        <mxCell id="9EPbQ2EsTdeeWSGCglKs-50" style="edgeStyle=orthogonalEdgeStyle;rounded=0;orthogonalLoop=1;jettySize=auto;html=1;entryX=0.5;entryY=1;entryDx=0;entryDy=0;" edge="1" parent="9EPbQ2EsTdeeWSGCglKs-14" source="9EPbQ2EsTdeeWSGCglKs-37" target="9EPbQ2EsTdeeWSGCglKs-45">
          <mxGeometry relative="1" as="geometry">
            <Array as="points">
              <mxPoint x="873" y="320" />
              <mxPoint x="160" y="320" />
            </Array>
          </mxGeometry>
        </mxCell>
      </root>
    </mxGraphModel>
  </diagram>
</mxfile>
